<svg xmlns="http://www.w3.org/2000/svg" viewBox="0 0 390 890" width="390" height="890"><rect width="390" height="890" fill="#ded3b8"/><text x="16" y="22" text-anchor="start" font-family="system-ui, sans-serif" font-size="14" font-weight="600" fill="#0d0d0d" fill-opacity="0.85">Hub · 法 Artes</text><text x="374" y="22" text-anchor="end" font-family="system-ui, sans-serif" font-size="10" font-weight="normal" fill="#c1272d" fill-opacity="0.9">PROPOSTA</text><g transform="translate(0,46)"><rect width="390" height="844" fill="#e8dcc0"/><rect x="16" y="14" width="54" height="54" rx="4" fill="#c1272d"/><text x="43" y="48" text-anchor="middle" font-family="serif" font-size="15" fill="#e8dcc0" fill-opacity="0.95">筑基</text><text x="82" y="36" text-anchor="start" font-family="system-ui, sans-serif" font-size="19" font-weight="500" fill="#0d0d0d" fill-opacity="0.92">Shen Baoyu</text><text x="82" y="55" text-anchor="start" font-family="system-ui, sans-serif" font-size="11" font-weight="normal" fill="#0d0d0d" fill-opacity="0.45">筑基 Foundation Building</text><text x="250" y="55" text-anchor="start" font-family="system-ui, sans-serif" font-size="11" font-weight="normal" fill="#8a6d16" fill-opacity="0.9">Level 12</text><rect x="82" y="63" width="250" height="3" rx="1.5" fill="#0d0d0d" fill-opacity="0.09"/><rect x="82" y="63" width="137.5" height="3" rx="1.5" fill="#0d0d0d" fill-opacity="0.9"/><rect x="0" y="88" width="390" height="1" fill="#0d0d0d" fill-opacity="0.16"/><text x="16" y="116" text-anchor="start" font-family="system-ui, sans-serif" font-size="10" font-weight="600" fill="#0d0d0d" fill-opacity="0.45">EQUIPADAS</text><text x="374" y="116" text-anchor="end" font-family="system-ui, sans-serif" font-size="10" font-weight="normal" fill="#8a6d16" fill-opacity="0.9">感悟 24</text><text x="16" y="132" text-anchor="start" font-family="system-ui, sans-serif" font-size="9" font-weight="normal" fill="#0d0d0d" fill-opacity="0.38">A ordem por que acordam durante a expedição.</text><rect x="16" y="148" width="358" height="54" rx="4" fill="#0d0d0d" fill-opacity="0.04" stroke="#0d0d0d" stroke-opacity="0.14"/><text x="30" y="181" text-anchor="start" font-family="system-ui, sans-serif" font-size="15" font-weight="600" fill="#0d0d0d" fill-opacity="0.28">1</text><svg width="34" height="34" x="49" y="158" viewBox="0 0 512 512" xmlns="http://www.w3.org/2000/svg" aria-hidden="true" color="#0d0d0d" opacity="0.34"><path fill="currentColor" d="m18.156 14.938l1.188 109.812l19.5 17.22c15.49-23.43 36.69-41.66 65.094-51.47l-80.5-75.563h-5.282zm168.125 53.78c-.396 44.894-10.642 82.204-31.155 111.5C272.262 286.142 455.438 453.28 455.438 464.407c-11.175 0-197.844-161.162-316.75-264.594c-25.878 25.887-62.488 43.38-110.313 52c68.746 39.904 126.46 57.79 191.594 69.282c-19.723 11.207-43.54 19.43-71.157 24.406c67.254 39.04 123.215 55.186 187.687 65.906c-16.78 9.55-36.457 17.074-59.97 21.313C354.206 477.804 413.56 487 498.314 497.5v-.03c-18.824-85.7-40.233-141.38-96.625-209.845c-.202 22.858-3.87 42.68-10.594 60.5c-19.436-63.145-45.6-114.738-94.438-174.03c-.235 26.606-4.35 50.287-12.094 71.093c-20.53-63.15-48.564-116.11-98.28-176.47zm-68.936 37.126c-29.56 7.767-49.585 24.63-64.406 48.53l30.312 26.75c7.968-26.825 21.017-51.348 34.094-75.28m15.062 11.406c-13.92 25.673-26.966 50.952-33.562 77.656l9.844 8.688c19.153-15.05 40.11-42.41 47.906-63.656z"/></svg><text x="88" y="174" text-anchor="start" font-family="system-ui, sans-serif" font-size="13" font-weight="normal" fill="#0d0d0d" fill-opacity="0.9">Point  点</text><text x="88" y="190" text-anchor="start" font-family="system-ui, sans-serif" font-size="9.5" font-weight="normal" fill="#0d0d0d" fill-opacity="0.42">Still · pierce</text><text x="282" y="182" text-anchor="middle" font-family="serif" font-size="17" fill="#c1272d" fill-opacity="0.85">静</text><circle cx="312" cy="178" r="3" fill="#8a6d16" fill-opacity="0.85"/><circle cx="323" cy="178" r="3" fill="#8a6d16" fill-opacity="0.85"/><circle cx="334" cy="178" r="3" fill="#8a6d16" fill-opacity="0.85"/><circle cx="345" cy="178" r="3" fill="#8a6d16" fill-opacity="0.15"/><circle cx="356" cy="178" r="3" fill="#8a6d16" fill-opacity="0.15"/><rect x="16" y="208" width="358" height="54" rx="4" fill="#0d0d0d" fill-opacity="0.04" stroke="#0d0d0d" stroke-opacity="0.14"/><text x="30" y="241" text-anchor="start" font-family="system-ui, sans-serif" font-size="15" font-weight="600" fill="#0d0d0d" fill-opacity="0.28">2</text><svg width="34" height="34" x="49" y="218" viewBox="0 0 512 512" xmlns="http://www.w3.org/2000/svg" aria-hidden="true" color="#0d0d0d" opacity="0.34"><path fill="currentColor" d="M190.03 21.97c-.71-.003-1.422.01-2.124.03c38.633 74.657 186.967 157.52 307.906 333.03c-38.488-159.928-215.34-332.78-305.78-333.06zM83.53 65.374c61.253 98.216 249.157 212.75 375.75 378.844C420.49 283.03 173.3 62.907 83.53 65.374m-67.31 81.313c59.365 87.324 194.506 155.172 355.03 345.125c-38.792-161.19-265.263-347.592-355.03-345.125"/></svg><text x="88" y="234" text-anchor="start" font-family="system-ui, sans-serif" font-size="13" font-weight="normal" fill="#0d0d0d" fill-opacity="0.9">Flow  流</text><text x="88" y="250" text-anchor="start" font-family="system-ui, sans-serif" font-size="9.5" font-weight="normal" fill="#0d0d0d" fill-opacity="0.42">Running · rate</text><text x="282" y="242" text-anchor="middle" font-family="serif" font-size="17" fill="#c1272d" fill-opacity="0.85">疾</text><circle cx="312" cy="238" r="3" fill="#8a6d16" fill-opacity="0.85"/><circle cx="323" cy="238" r="3" fill="#8a6d16" fill-opacity="0.85"/><circle cx="334" cy="238" r="3" fill="#8a6d16" fill-opacity="0.15"/><circle cx="345" cy="238" r="3" fill="#8a6d16" fill-opacity="0.15"/><circle cx="356" cy="238" r="3" fill="#8a6d16" fill-opacity="0.15"/><rect x="16" y="268" width="358" height="54" rx="4" fill="#0d0d0d" fill-opacity="0.04" stroke="#0d0d0d" stroke-opacity="0.14"/><text x="30" y="301" text-anchor="start" font-family="system-ui, sans-serif" font-size="15" font-weight="600" fill="#0d0d0d" fill-opacity="0.28">3</text><svg width="34" height="34" x="49" y="278" viewBox="0 0 512 512" xmlns="http://www.w3.org/2000/svg" aria-hidden="true" color="#0d0d0d" opacity="0.34"><path fill="currentColor" d="M490.594 16.5C475.867 89.867 453.31 155.58 422.5 214.063c-21.152 25.636-62.322 41.665-103.53 34.375c43.72-60.817 65.875-137.485 56.75-217.813c-16.566 59.05-35.182 107.876-58.876 150.063c-15.774 16.782-43.006 26.035-71.03 17.562c32.043-43.75 48.387-99.21 41.78-157.375c-10.346 33.145-23.852 63.82-40.313 92.094c-14.07 15.776-39.033 24.72-64.843 17.186c21.468-29.682 32.4-67.153 27.938-106.437c-8.185 18.823-17.562 36.73-28.063 53.718c-13.755 11.638-44.94 9.03-68.406.906l-1.03-.78c12.087-18.074 16.897-41.415 11.655-66.783a207 207 0 0 1-15.186 31.94c-10.587 17.13-38.888 3.862-57.5-8.782c15.907 14.915 32.82 40.912 17.375 58.53c-8.39 7.818-17.43 15.142-27.095 21.938c23.353-.655 43.408-8.87 58.125-22.22c22.488 19.768 27.623 50.15 16.688 65.876a424 424 0 0 1-40.657 34.188c37.302-4.225 69.916-21.612 93.75-47l1.407 1.125c11.843 22.98 8.502 48.584-3.718 65.188c-23.105 21.13-48.766 40.03-76.876 56.687c57.276-6.488 107.018-34.138 142.344-74.25l1.03.813c13.878 25.61 10.338 54.48-3.312 73.062c-35.078 31.465-77.614 59.935-130.312 88.625c80.3-9.095 150.015-47.894 199.437-104.22c19.344 39.258 12.064 82.842-10.25 109.47c-49.987 43.37-108.914 79.872-177.217 109.97C348.12 465.035 517.375 252.265 490.592 16.5z"/></svg><text x="88" y="294" text-anchor="start" font-family="system-ui, sans-serif" font-size="13" font-weight="normal" fill="#0d0d0d" fill-opacity="0.9">Shadow  影</text><text x="88" y="310" text-anchor="start" font-family="system-ui, sans-serif" font-size="9.5" font-weight="normal" fill="#0d0d0d" fill-opacity="0.42">Turning · echo</text><text x="282" y="302" text-anchor="middle" font-family="serif" font-size="17" fill="#c1272d" fill-opacity="0.85">转</text><circle cx="312" cy="298" r="3" fill="#8a6d16" fill-opacity="0.85"/><circle cx="323" cy="298" r="3" fill="#8a6d16" fill-opacity="0.15"/><circle cx="334" cy="298" r="3" fill="#8a6d16" fill-opacity="0.15"/><circle cx="345" cy="298" r="3" fill="#8a6d16" fill-opacity="0.15"/><circle cx="356" cy="298" r="3" fill="#8a6d16" fill-opacity="0.15"/><rect x="16" y="328" width="358" height="54" rx="4" fill="#0d0d0d" fill-opacity="0" stroke="#0d0d0d" stroke-opacity="0.16"/><text x="195" y="361" text-anchor="middle" font-family="system-ui, sans-serif" font-size="12" font-weight="normal" fill="#0d0d0d" fill-opacity="0.35">+  quarta arte</text><rect x="16" y="392" width="358" height="1" fill="#0d0d0d" fill-opacity="0.12"/><text x="16" y="410" text-anchor="start" font-family="system-ui, sans-serif" font-size="10" font-weight="600" fill="#0d0d0d" fill-opacity="0.45">剑  ROLO DO STRAIGHT JIAN</text><text x="16" y="426" text-anchor="start" font-family="system-ui, sans-serif" font-size="9" font-weight="normal" fill="#0d0d0d" fill-opacity="0.38">Só vês o rolo da arma que tens na mão.</text><rect x="16" y="440" width="358" height="50" rx="4" fill="#0d0d0d" fill-opacity="0.04" stroke="#0d0d0d" stroke-opacity="0.14"/><text x="46" y="472" text-anchor="middle" font-family="serif" font-size="20" fill="#0d0d0d" fill-opacity="0.9">断</text><text x="72" y="465" text-anchor="start" font-family="system-ui, sans-serif" font-size="12.5" font-weight="normal" fill="#0d0d0d" fill-opacity="0.85">Sever</text><text x="72" y="480" text-anchor="start" font-family="system-ui, sans-serif" font-size="9" font-weight="normal" fill="#0d0d0d" fill-opacity="0.42">Surrounded, the sweep finds the gap and cuts t…</text><text x="360" y="472" text-anchor="end" font-family="system-ui, sans-serif" font-size="10" font-weight="normal" fill="#c1272d" fill-opacity="0.9">equipar</text><rect x="16" y="496" width="358" height="50" rx="4" fill="#0d0d0d" fill-opacity="0.015" stroke="#0d0d0d" stroke-opacity="0.08"/><text x="46" y="528" text-anchor="middle" font-family="serif" font-size="14" fill="#0d0d0d" fill-opacity="0.28">剑气</text><text x="72" y="521" text-anchor="start" font-family="system-ui, sans-serif" font-size="12.5" font-weight="normal" fill="#0d0d0d" fill-opacity="0.3">Sword Qi</text><text x="72" y="536" text-anchor="start" font-family="system-ui, sans-serif" font-size="9" font-weight="normal" fill="#0d0d0d" fill-opacity="0.22">On low health, the sweep throws qi past its ow…</text><text x="360" y="528" text-anchor="end" font-family="system-ui, sans-serif" font-size="10" font-weight="normal" fill="#8a6d16" fill-opacity="0.65">秘笈 ?</text><rect x="0" y="770" width="390" height="1" fill="#0d0d0d" fill-opacity="0.16"/><text x="48.75" y="804" text-anchor="middle" font-family="serif" font-size="20" fill="#0d0d0d" fill-opacity="0.3">剑</text><text x="48.75" y="822" text-anchor="middle" font-family="system-ui, sans-serif" font-size="8.5" font-weight="normal" fill="#0d0d0d" fill-opacity="0.28">SWORDSMAN</text><text x="146.25" y="804" text-anchor="middle" font-family="serif" font-size="20" fill="#0d0d0d" fill-opacity="0.3">装</text><text x="146.25" y="822" text-anchor="middle" font-family="system-ui, sans-serif" font-size="8.5" font-weight="normal" fill="#0d0d0d" fill-opacity="0.28">EQUIPMENT</text><rect x="195" y="770" width="97.5" height="2" fill="#c1272d"/><text x="243.75" y="804" text-anchor="middle" font-family="serif" font-size="20" fill="#0d0d0d" fill-opacity="0.9">法</text><text x="243.75" y="822" text-anchor="middle" font-family="system-ui, sans-serif" font-size="8.5" font-weight="normal" fill="#0d0d0d" fill-opacity="0.7">ARTS</text><text x="341.25" y="804" text-anchor="middle" font-family="serif" font-size="20" fill="#0d0d0d" fill-opacity="0.3">界</text><text x="341.25" y="822" text-anchor="middle" font-family="system-ui, sans-serif" font-size="8.5" font-weight="normal" fill="#0d0d0d" fill-opacity="0.28">WORLD</text></g></svg>